<svg width="187" height="63" viewBox="0 0 187 63" fill="none" xmlns="http://www.w3.org/2000/svg">
<g clip-path="url(#clip0_1_2)">
<rect width="187" height="63" fill="white"/>
<path d="M35.4062 -0.242188V12.4141H25.6406V63H9.19531V12.4141H-0.53125V-0.242188H35.4062Z" fill="black"/>
<path d="M41.6387 34.75H36.5312V37.5527C36.5312 38.1387 36.5736 38.5163 36.6582 38.6855C36.7428 38.8548 36.9056 38.9395 37.1465 38.9395C37.446 38.9395 37.6445 38.8288 37.7422 38.6074C37.8464 38.3796 37.8984 37.9434 37.8984 37.2988V35.5898H41.6387V36.5469C41.6387 37.3477 41.5866 37.9629 41.4824 38.3926C41.3848 38.8223 41.1504 39.2812 40.7793 39.7695C40.4082 40.2578 39.9362 40.6257 39.3633 40.873C38.7969 41.1139 38.084 41.2344 37.2246 41.2344C36.3913 41.2344 35.6556 41.1139 35.0176 40.873C34.3796 40.6322 33.8815 40.3034 33.5234 39.8867C33.1719 39.4635 32.9277 39.0013 32.791 38.5C32.6543 37.9922 32.5859 37.2565 32.5859 36.293V32.5137C32.5859 31.3809 32.7389 30.4889 33.0449 29.8379C33.3509 29.1803 33.8522 28.679 34.5488 28.334C35.2454 27.9824 36.0462 27.8066 36.9512 27.8066C38.0579 27.8066 38.9694 28.0182 39.6855 28.4414C40.4082 28.8581 40.9128 29.4147 41.1992 30.1113C41.4922 30.8014 41.6387 31.7747 41.6387 33.0312V34.75ZM37.6836 32.6406V31.6934C37.6836 31.0228 37.6478 30.5898 37.5762 30.3945C37.5046 30.1992 37.3581 30.1016 37.1367 30.1016C36.8633 30.1016 36.694 30.1862 36.6289 30.3555C36.5638 30.5182 36.5312 30.9642 36.5312 31.6934V32.6406H37.6836ZM46.4629 33.0605H42.7617V32.1914C42.7617 31.1888 42.8757 30.4173 43.1035 29.877C43.3379 29.3301 43.8034 28.8483 44.5 28.4316C45.1966 28.015 46.1016 27.8066 47.2148 27.8066C48.5495 27.8066 49.5553 28.0443 50.2324 28.5195C50.9095 28.9883 51.3164 29.5677 51.4531 30.2578C51.5898 30.9414 51.6582 32.3542 51.6582 34.4961V41H47.8203V39.8477C47.5794 40.3099 47.2669 40.6582 46.8828 40.8926C46.5052 41.1204 46.0527 41.2344 45.5254 41.2344C44.8353 41.2344 44.2005 41.0423 43.6211 40.6582C43.0482 40.2676 42.7617 39.418 42.7617 38.1094V37.0449C42.7617 36.0749 42.9147 35.4141 43.2207 35.0625C43.5267 34.7109 44.2852 34.3008 45.4961 33.832C46.7917 33.3242 47.485 32.9824 47.5762 32.8066C47.6673 32.6309 47.7129 32.2728 47.7129 31.7324C47.7129 31.0553 47.6608 30.6159 47.5566 30.4141C47.459 30.2057 47.293 30.1016 47.0586 30.1016C46.7917 30.1016 46.6257 30.1895 46.5605 30.3652C46.4954 30.5345 46.4629 30.9805 46.4629 31.7031V33.0605ZM47.7129 34.8379C47.0814 35.3001 46.7135 35.6875 46.6094 36C46.5117 36.3125 46.4629 36.7617 46.4629 37.3477C46.4629 38.0182 46.5052 38.4512 46.5898 38.6465C46.681 38.8418 46.8568 38.9395 47.1172 38.9395C47.3646 38.9395 47.5241 38.8646 47.5957 38.7148C47.6738 38.5586 47.7129 38.1549 47.7129 37.5039V34.8379ZM56.9121 28.041L56.8438 29.2715C57.1497 28.7832 57.5143 28.4186 57.9375 28.1777C58.3607 27.9303 58.8424 27.8066 59.3828 27.8066C60.4375 27.8066 61.2676 28.2949 61.873 29.2715C62.2051 28.7832 62.5794 28.4186 62.9961 28.1777C63.4128 27.9303 63.875 27.8066 64.3828 27.8066C65.0534 27.8066 65.6068 27.9694 66.043 28.2949C66.4857 28.6204 66.7689 29.0208 66.8926 29.4961C67.0163 29.9648 67.0781 30.7298 67.0781 31.791V41H63.25V32.5527C63.25 31.446 63.2109 30.7624 63.1328 30.502C63.0612 30.235 62.8887 30.1016 62.6152 30.1016C62.3353 30.1016 62.153 30.2318 62.0684 30.4922C61.9902 30.7526 61.9512 31.4395 61.9512 32.5527V41H58.123V32.7676C58.123 31.498 58.0905 30.7363 58.0254 30.4824C57.9668 30.2285 57.7975 30.1016 57.5176 30.1016C57.3418 30.1016 57.1921 30.1699 57.0684 30.3066C56.9447 30.4368 56.8763 30.5996 56.8633 30.7949C56.8503 30.9837 56.8438 31.3906 56.8438 32.0156V41H53.0156V28.041H56.9121Z" fill="black"/>
<path d="M74.2812 -0.242188H85.9219C93.6823 -0.242188 98.9297 0.0572917 101.664 0.65625C104.424 1.25521 106.664 2.79167 108.383 5.26562C110.128 7.71354 111 11.6328 111 17.0234C111 21.9453 110.388 25.2526 109.164 26.9453C107.94 28.638 105.531 29.6536 101.938 29.9922C105.193 30.7995 107.38 31.8802 108.5 33.2344C109.62 34.5885 110.31 35.8385 110.57 36.9844C110.857 38.1042 111 41.2161 111 46.3203V63H95.7266V41.9844C95.7266 38.599 95.4531 36.5026 94.9062 35.6953C94.3854 34.888 92.9922 34.4844 90.7266 34.4844V63H74.2812V-0.242188ZM90.7266 10.5781V24.6406C92.5755 24.6406 93.8646 24.3932 94.5938 23.8984C95.349 23.3776 95.7266 21.724 95.7266 18.9375V15.4609C95.7266 13.4557 95.362 12.1406 94.6328 11.5156C93.9297 10.8906 92.6276 10.5781 90.7266 10.5781ZM117.406 -0.242188H144.828V12.4141H133.852V24.4062H144.125V36.4375H133.852V50.3438H145.922V63H117.406V-0.242188ZM184.008 -0.242188L178.266 27.7266L186.938 63H171.703C169.88 56.6979 168.214 49.0286 166.703 39.9922C166.286 43.9766 165.714 48.2083 164.984 52.6875L163.422 63H147.406L153.344 27.7266L147.406 -0.242188H163.305C163.591 1.5026 164.164 4.40625 165.023 8.46875C165.701 11.5677 166.26 14.4062 166.703 16.9844L170.219 -0.242188H184.008Z" fill="black"/>
</g>
<defs>
<clipPath id="clip0_1_2">
<rect width="187" height="63" fill="white"/>
</clipPath>
</defs>
</svg>
